Coordinates
version=1
nRows=21
nColumns=38
inDegrees=no

Units are S.I. units (second, meters, Newtons, ...)
If the header above contains a line with 'inDegrees', this indicates whether rotational values are in degrees (yes) or radians (no).

endheader
time	pelvis_tilt	pelvis_list	pelvis_rotation	pelvis_tx	pelvis_ty	pelvis_tz	hip_flexion_r	hip_adduction_r	hip_rotation_r	knee_angle_r	ankle_angle_r	subtalar_angle_r	mtp_angle_r	hip_flexion_l	hip_adduction_l	hip_rotation_l	knee_angle_l	ankle_angle_l	subtalar_angle_l	mtp_angle_l	lumbar_extension	lumbar_bending	lumbar_rotation	arm_flex_r	arm_add_r	arm_rot_r	elbow_flex_r	pro_sup_r	wrist_flex_r	wrist_dev_r	arm_flex_l	arm_add_l	arm_rot_l	elbow_flex_l	pro_sup_l	wrist_flex_l	wrist_dev_l
0.43	-0.153367	0.0445012	-0.00206977	0.722198	1.02462	-0.31795	0.558488	-0.0521605	-0.332796	-0.27731	-0.135833	0.000369651	0.0034702	0.00664334	-0.0407661	-0.223848	-1.00095	-0.156079	0.030297	0.00968823	-0.00715298	-0.0113265	-0.19408	-0.619373	-0.29998	-0.119097	1.36458	1.40285	0.0331994	-0.033171	-0.0606831	-0.495681	0.470853	2.08746	1.46405	-0.00715182	-0.00142931
0.44	-0.147781	0.0402136	-0.00815784	0.723036	1.01898	-0.316485	0.563073	-0.0397113	-0.289254	-0.343137	-0.0943514	0.000369651	0.0034702	0.0259854	-0.0621056	-0.228845	-1.09877	-0.13385	0.030297	0.00968823	-0.0121994	-0.00386894	-0.183836	-0.606114	-0.304233	-0.120407	1.36401	1.4027	0.0331994	-0.033171	-0.0833875	-0.48542	0.462005	2.05454	1.46164	-0.00715182	-0.00142931
0.45	-0.143393	0.0358882	-0.0134005	0.723357	1.01243	-0.315323	0.567577	-0.0278768	-0.252094	-0.410142	-0.0441987	0.000369651	0.0034702	0.0514052	-0.0801541	-0.228815	-1.19425	-0.112433	0.030297	0.00968823	-0.0172445	0.00363789	-0.173512	-0.589057	-0.30803	-0.119644	1.36353	1.40465	0.0331994	-0.033171	-0.105841	-0.476987	0.453211	2.01988	1.46015	-0.00715182	-0.00142931
0.46	-0.140245	0.0315319	-0.0177772	0.723131	1.00513	-0.314443	0.571957	-0.0166999	-0.2214	-0.478041	0.0141326	0.000369651	0.0034702	0.0829455	-0.0948974	-0.223801	-1.28731	-0.0918592	0.030297	0.00968823	-0.0222417	0.0111777	-0.163146	-0.568184	-0.311369	-0.11678	1.3631	1.40864	0.0331994	-0.033171	-0.128076	-0.470375	0.444458	1.98354	1.45953	-0.00715182	-0.00142931
0.47	-0.138412	0.0271752	-0.0212332	0.722324	0.997335	-0.313828	0.57605	-0.00629356	-0.197234	-0.546009	0.0792044	0.000369651	0.0034702	0.120662	-0.106291	-0.213946	-1.37762	-0.0721946	0.030297	0.00968823	-0.0270761	0.0186997	-0.152848	-0.543467	-0.314243	-0.111742	1.36267	1.41463	0.0331994	-0.033171	-0.150207	-0.465556	0.435701	1.94569	1.45969	-0.00715182	-0.00142931
0.48	-0.137935	0.0228886	-0.0236898	0.720954	0.989399	-0.313462	0.579449	0.00317055	-0.179416	-0.612577	0.14854	0.000369651	0.0034702	0.164501	-0.114275	-0.199574	-1.4645	-0.0535085	0.030297	0.00968823	-0.0315879	0.0260976	-0.142792	-0.514915	-0.316635	-0.104453	1.36218	1.42258	0.0331994	-0.033171	-0.172459	-0.462478	0.426862	1.90674	1.46049	-0.00715182	-0.00142931
0.49	-0.13876	0.0187817	-0.0250822	0.719085	0.981687	-0.313319	0.581426	0.0114738	-0.167354	-0.675744	0.218963	0.000369651	0.0034702	0.214131	-0.118796	-0.181285	-1.54685	-0.0358347	0.030297	0.00968823	-0.0356282	0.0331653	-0.133172	-0.482681	-0.318509	-0.0949064	1.36164	1.43254	0.0331994	-0.033171	-0.195158	-0.46107	0.417853	1.86735	1.4617	-0.00715182	-0.00142931
0.5	-0.140715	0.0150298	-0.0254062	0.716783	0.974554	-0.313346	0.580902	0.0183717	-0.160041	-0.73321	0.287145	0.000369651	0.0034702	0.268799	-0.119857	-0.160018	-1.62316	-0.0191637	0.030297	0.00968823	-0.0391335	0.0395806	-0.124118	-0.447171	-0.319791	-0.0832774	1.3613	1.44463	0.0331994	-0.033171	-0.218684	-0.461276	0.408611	1.8285	1.46314	-0.00715182	-0.00142931
0.51	-0.14352	0.0118613	-0.0247628	0.714131	0.968302	-0.313482	0.576585	0.0235983	-0.156214	-0.782691	0.350109	0.000369651	0.0034702	0.327329	-0.117557	-0.137046	-1.69167	-0.00346907	0.030297	0.00968823	-0.0421221	0.0448989	-0.115627	-0.409133	-0.320366	-0.069995	1.3617	1.45887	0.0331994	-0.033171	-0.243406	-0.463069	0.39913	1.79143	1.46463	-0.00715182	-0.00142931
0.52	-0.146889	0.00957176	-0.0233632	0.711253	0.963168	-0.31367	0.567185	0.0268966	-0.154569	-0.822227	0.405478	0.000369651	0.0034702	0.388198	-0.112131	-0.113889	-1.75051	0.0112566	0.030297	0.00968823	-0.0446804	0.0486028	-0.10752	-0.369662	-0.320089	-0.0557553	1.3637	1.47505	0.0331994	-0.033171	-0.269625	-0.466463	0.389477	1.75752	1.46608	-0.00715182	-0.00142931
0.53	-0.150461	0.00852366	-0.0215129	0.708331	0.959334	-0.313866	0.551683	0.0280572	-0.153947	-0.850408	0.451489	0.000369651	0.0034702	0.449718	-0.103968	-0.0921505	-1.79796	0.0249898	0.030297	0.00968823	-0.0468568	0.0501847	-0.0994648	-0.330125	-0.318814	-0.0414456	1.3684	1.49261	0.0331994	-0.033171	-0.297544	-0.471475	0.379779	1.72812	1.4674	-0.00715182	-0.00142931
0.54	-0.153899	0.00906403	-0.019564	0.705555	0.956939	-0.314041	0.529493	0.0269316	-0.153455	-0.866511	0.486859	0.000369651	0.0034702	0.510199	-0.0935809	-0.0733323	-1.83258	0.0377019	0.030297	0.00968823	-0.0486347	0.0492023	-0.0910568	-0.292002	-0.316426	-0.0279891	1.3769	1.51067	0.0331994	-0.033171	-0.327267	-0.478085	0.370187	1.70444	1.46847	-0.00715182	-0.00142931
0.55	-0.156987	0.0114651	-0.0178516	0.703095	0.956047	-0.314174	0.500517	0.0234413	-0.152522	-0.870521	0.510635	0.000369651	0.0034702	0.568066	-0.0815531	-0.0586631	-1.85335	0.0494091	0.030297	0.00968823	-0.0499424	0.0453423	-0.0819194	-0.256698	-0.312894	-0.0161551	1.3901	1.52815	0.0331994	-0.033171	-0.358827	-0.486163	0.360818	1.68736	1.46915	-0.00715182	-0.00142931
0.56	-0.159635	0.015884	-0.0166365	0.701082	0.956653	-0.314254	0.465144	0.0175749	-0.150923	-0.863067	0.522077	0.000369651	0.0034702	0.62196	-0.0684725	-0.0489775	-1.85974	0.0602154	0.030297	0.00968823	-0.050649	0.0384731	-0.0718019	-0.225381	-0.308303	-0.00640269	1.40849	1.54406	0.0331994	-0.033171	-0.392225	-0.495422	0.351686	1.67733	1.46926	-0.00715182	-0.00142931
0.57	-0.161873	0.0223406	-0.0160759	0.69961	0.958682	-0.314286	0.424179	0.00939037	-0.148749	-0.845332	0.520609	0.000369651	0.0034702	0.67077	-0.0548832	-0.0446696	-1.85166	0.0703194	0.030297	0.00968823	-0.0505933	0.0286764	-0.0606289	-0.198863	-0.302871	0.00119562	1.43201	1.55758	0.0331994	-0.033171	-0.427459	-0.505393	0.342659	1.67431	1.46866	-0.00715182	-0.00142931
0.58	-0.163794	0.0306746	-0.0162247	0.698743	0.962018	-0.314278	0.378739	-0.000982833	-0.146326	-0.818946	0.505861	0.000369651	0.0034702	0.71362	-0.0412505	-0.0457113	-1.82946	0.0799776	0.030297	0.00968823	-0.0496273	0.0162337	-0.0484965	-0.177559	-0.29694	0.00691961	1.46016	1.56806	0.0331994	-0.033171	-0.464518	-0.515446	0.333473	1.67778	1.46724	-0.00715182	-0.00142931
0.59	-0.165453	0.0405405	-0.0170695	0.698509	0.966503	-0.314242	0.33016	-0.0133299	-0.144114	-0.785885	0.477786	0.000369651	0.0034702	0.749849	-0.0279352	-0.0516929	-1.79376	0.0894343	0.030297	0.00968823	-0.0476431	0.00160061	-0.0356411	-0.161515	-0.290923	0.0112807	1.49206	1.57498	0.0331994	-0.033171	-0.503347	-0.524851	0.323785	1.68679	1.46488	-0.00715182	-0.00142931
0.6	-0.166837	0.0514947	-0.0185419	0.698909	0.971958	-0.314206	0.279894	-0.0273187	-0.142595	-0.748385	0.436839	0.000369651	0.0034702	0.778979	-0.0151714	-0.0618584	-1.74539	0.0988415	0.030297	0.00968823	-0.0446169	-0.0146068	-0.0223898	-0.150467	-0.285232	0.0148656	1.52663	1.57801	0.0331994	-0.033171	-0.543786	-0.53287	0.31326	1.70009	1.46146	-0.00715182	-0.00142931
0.61	-0.16791	0.0630173	-0.0205109	0.699909	0.97817	-0.314193	0.229426	-0.0424916	-0.142172	-0.708853	0.384158	0.000369651	0.0034702	0.800715	-0.00302977	-0.0751329	-1.68523	0.108189	0.030297	0.00968823	-0.0406378	-0.031664	-0.00912289	-0.143921	-0.280213	0.0181975	1.56267	1.57721	0.0331994	-0.033171	-0.585515	-0.538853	0.301646	1.71627	1.45689	-0.00715182	-0.00142931
0.62	-0.16864	0.0745263	-0.0227599	0.701435	0.984893	-0.314229	0.180228	-0.0582583	-0.143097	-0.669775	0.321693	0.000369651	0.0034702	0.814975	0.00859756	-0.0901479	-1.61418	0.117263	0.030297	0.00968823	-0.0358967	-0.0487879	0.0037405	-0.141231	-0.276085	0.0216432	1.59898	1.57312	0.0331994	-0.033171	-0.628005	-0.542336	0.288818	1.734	1.45117	-0.00715182	-0.00142931
0.63	-0.169038	0.0854002	-0.0249743	0.703375	0.991864	-0.314334	0.133712	-0.0739002	-0.145415	-0.63362	0.252232	0.000369651	0.0034702	0.821923	0.0199603	-0.105319	-1.53313	0.125654	0.030297	0.00968823	-0.0306477	-0.0651814	0.0157534	-0.141683	-0.272931	0.0253784	1.63441	1.56685	0.0331994	-0.033171	-0.670513	-0.5431	0.274786	1.75211	1.44449	-0.00715182	-0.00142931
